<?xml version="1.0" encoding="UTF-8"?>
<svg id="Logo_Foleon" data-name="Logo Foleon" xmlns="http://www.w3.org/2000/svg" viewBox="0 0 457.83 98.57">
    <defs>
        <style>
            .logo-fill {
                fill: #fff;
            }
        </style>
    </defs>
    <title>Logo_Foleon_DIAP</title>
    <path class="logo-fill" d="M150.08,103.13H165a.94.94,0,0,0,.94-.94V83.33a1,1,0,0,1,.95-.94H182a.94.94,0,0,0,.94-.94V68.65a.94.94,0,0,0-.94-.94H166.88a1,1,0,0,1-.95-.94V54.42a1,1,0,0,1,.95-.94h21.43a1,1,0,0,0,.94-.94V39.83a1,1,0,0,0-.94-.94H150.08a.94.94,0,0,0-.94.94v62.36A.94.94,0,0,0,150.08,103.13Z" transform="translate(-25.31 -21.94)"></path>
    <path class="logo-fill" d="M224.78,37.6c-16.7,0-33.13,11.2-33.13,33.41s15.88,33.32,32.86,33.32c19.45,0,33-13.68,33-33.32C257.55,48.8,241.21,37.6,224.78,37.6Zm-.18,50.85c-8.26,0-16.15-6-16.15-17.44,0-11.75,8-17.44,16.33-17.44,8,0,16,6,16,17.44S232.58,88.45,224.6,88.45Z" transform="translate(-25.31 -21.94)"></path>
    <path class="logo-fill" d="M278.91,38.89H264a.94.94,0,0,0-.94.94v62.36a.94.94,0,0,0,.94.94h38.13a.94.94,0,0,0,.94-.94V89a.94.94,0,0,0-.94-.94H280.8a1,1,0,0,1-.95-.94V39.83A.94.94,0,0,0,278.91,38.89Z" transform="translate(-25.31 -21.94)"></path>
    <path class="logo-fill" d="M327.42,77.34h17.23a1,1,0,0,0,.94-.94V63.6a1,1,0,0,0-.94-.94H327.42a.94.94,0,0,1-.94-.94v-7.3a.94.94,0,0,1,.94-.94h21.43a.94.94,0,0,0,.94-.94V39.83a.94.94,0,0,0-.94-.94H310.62a.94.94,0,0,0-.94.94v62.36a.94.94,0,0,0,.94.94h39.05a.94.94,0,0,0,.94-.94V88.75a.94.94,0,0,0-.94-.94H327.42a.94.94,0,0,1-.94-.94V78.28A.94.94,0,0,1,327.42,77.34Z" transform="translate(-25.31 -21.94)"></path>
    <path class="logo-fill" d="M388.16,37.6C371.45,37.6,355,48.8,355,71s15.87,33.32,32.85,33.32c19.46,0,33-13.68,33-33.32C420.92,48.8,404.59,37.6,388.16,37.6ZM388,88.45c-8.26,0-16.15-6-16.15-17.44,0-11.75,8-17.44,16.34-17.44,8,0,16,6,16,17.44S396,88.45,388,88.45Z" transform="translate(-25.31 -21.94)"></path>
    <path class="logo-fill" d="M464.76,68.78,433.12,38.87a.94.94,0,0,0-.64-.26h-3.92a.94.94,0,0,0-.94.94v62.64a.94.94,0,0,0,.94.94h14.91a.94.94,0,0,0,.94-.94V72.25a.94.94,0,0,1,1.6-.67L477.91,103a.94.94,0,0,0,.66.28h3.63a1,1,0,0,0,.94-.94V39.83a.94.94,0,0,0-.94-.94H467.29a.94.94,0,0,0-.94.94V68.09A1,1,0,0,1,464.76,68.78Z" transform="translate(-25.31 -21.94)"></path>
    <path class="logo-fill" d="M25.31,23.64V118.8A1.71,1.71,0,0,0,27,120.51h95.16a1.71,1.71,0,0,0,1.71-1.71V23.64a1.71,1.71,0,0,0-1.71-1.7H27A1.71,1.71,0,0,0,25.31,23.64Zm81.35,17L43.83,103.44a.91.91,0,0,1-1.56-.64V41.05a2,2,0,0,1,2-2H106A.91.91,0,0,1,106.66,40.61Z" transform="translate(-25.31 -21.94)"></path>
</svg>
